<svg width="30" height="66" viewBox="0 0 30 66" fill="none" xmlns="http://www.w3.org/2000/svg">
<rect x="7.5" width="15" height="39" rx="7.5" fill="url(#paint0_linear_201_31)"/>
<path d="M4.07182 60.1491C3.45534 60.1491 2.90516 59.9917 2.42125 59.6768C1.94067 59.3587 1.56283 58.9062 1.28773 58.3196C1.01595 57.7296 0.88006 57.022 0.88006 56.1967C0.88006 55.3714 1.01761 54.6655 1.2927 54.0788C1.57111 53.4922 1.95227 53.0431 2.43617 52.7315C2.92007 52.42 3.4686 52.2642 4.08176 52.2642C4.55572 52.2642 4.93688 52.3438 5.22523 52.5028C5.5169 52.6586 5.74228 52.8409 5.90137 53.0497C6.06377 53.2585 6.18972 53.4425 6.27921 53.6016H6.3687V49.8182H7.8552V60H6.4035V58.8118H6.27921C6.18972 58.9742 6.06046 59.1598 5.89142 59.3686C5.7257 59.5774 5.49701 59.7597 5.20534 59.9155C4.91368 60.0713 4.53584 60.1491 4.07182 60.1491ZM4.39995 58.8814C4.8275 58.8814 5.18877 58.7687 5.48375 58.5433C5.78205 58.3146 6.00743 57.9981 6.15989 57.5938C6.31567 57.1894 6.39355 56.7187 6.39355 56.1818C6.39355 55.6515 6.31732 55.1875 6.16486 54.7898C6.0124 54.392 5.78868 54.0821 5.4937 53.8601C5.19872 53.638 4.83413 53.527 4.39995 53.527C3.9525 53.527 3.57963 53.643 3.28134 53.875C2.98304 54.107 2.75766 54.4235 2.6052 54.8246C2.45605 55.2256 2.38148 55.678 2.38148 56.1818C2.38148 56.6922 2.45771 57.1513 2.61017 57.5589C2.76264 57.9666 2.98801 58.2898 3.28631 58.5284C3.58792 58.7637 3.95913 58.8814 4.39995 58.8814ZM13.1934 60.1541C12.4775 60.1541 11.8528 59.9901 11.3192 59.6619C10.7855 59.3338 10.3712 58.8748 10.0763 58.2848C9.78128 57.6948 9.63379 57.0054 9.63379 56.2166C9.63379 55.4245 9.78128 54.7318 10.0763 54.1385C10.3712 53.5452 10.7855 53.0845 11.3192 52.7564C11.8528 52.4283 12.4775 52.2642 13.1934 52.2642C13.9094 52.2642 14.5341 52.4283 15.0677 52.7564C15.6014 53.0845 16.0157 53.5452 16.3106 54.1385C16.6056 54.7318 16.7531 55.4245 16.7531 56.2166C16.7531 57.0054 16.6056 57.6948 16.3106 58.2848C16.0157 58.8748 15.6014 59.3338 15.0677 59.6619C14.5341 59.9901 13.9094 60.1541 13.1934 60.1541ZM13.1984 58.9062C13.6624 58.9062 14.0469 58.7836 14.3518 58.5384C14.6568 58.2931 14.8821 57.9666 15.028 57.5589C15.1771 57.1513 15.2517 56.7022 15.2517 56.2116C15.2517 55.7244 15.1771 55.277 15.028 54.8693C14.8821 54.4583 14.6568 54.1286 14.3518 53.88C14.0469 53.6314 13.6624 53.5071 13.1984 53.5071C12.7311 53.5071 12.3433 53.6314 12.0351 53.88C11.7301 54.1286 11.5031 54.4583 11.354 54.8693C11.2081 55.277 11.1352 55.7244 11.1352 56.2116C11.1352 56.7022 11.2081 57.1513 11.354 57.5589C11.5031 57.9666 11.7301 58.2931 12.0351 58.5384C12.3433 58.7836 12.7311 58.9062 13.1984 58.9062ZM18.4124 60V52.3636H19.8392V53.6065H19.9337C20.0928 53.1856 20.353 52.8575 20.7142 52.6222C21.0755 52.3835 21.508 52.2642 22.0118 52.2642C22.5222 52.2642 22.9498 52.3835 23.2945 52.6222C23.6425 52.8608 23.8994 53.1889 24.0651 53.6065H24.1446C24.3269 53.1989 24.6169 52.8741 25.0146 52.6321C25.4124 52.3868 25.8863 52.2642 26.4365 52.2642C27.1292 52.2642 27.6943 52.4813 28.1318 52.9155C28.5727 53.3497 28.7931 54.0043 28.7931 54.8793V60H27.3066V55.0185C27.3066 54.5014 27.1657 54.1269 26.884 53.8949C26.6022 53.6629 26.2658 53.5469 25.8747 53.5469C25.3908 53.5469 25.0146 53.696 24.7462 53.9943C24.4777 54.2893 24.3435 54.6688 24.3435 55.1328V60H22.8619V54.924C22.8619 54.5097 22.7327 54.1766 22.4742 53.9247C22.2156 53.6728 21.8792 53.5469 21.4649 53.5469C21.1832 53.5469 20.923 53.6214 20.6844 53.7706C20.4491 53.9164 20.2585 54.1203 20.1127 54.3821C19.9701 54.6439 19.8989 54.9472 19.8989 55.2919V60H18.4124Z" fill="white"/>
<defs>
<linearGradient id="paint0_linear_201_31" x1="15" y1="0" x2="15" y2="39" gradientUnits="userSpaceOnUse">
<stop stop-color="#90F7EC"/>
<stop offset="1" stop-color="#32CCBC"/>
</linearGradient>
</defs>
</svg>


