<svg width="25" height="186" viewBox="0 0 25 186" fill="none" xmlns="http://www.w3.org/2000/svg">
<rect x="5" width="15" height="159" rx="7.5" fill="url(#paint0_linear_201_43)"/>
<path d="M6.18608 182.864V178.812H6.09659C6.0071 178.974 5.87784 179.16 5.70881 179.369C5.54309 179.577 5.31439 179.76 5.02273 179.915C4.73106 180.071 4.35322 180.149 3.8892 180.149C3.27273 180.149 2.72254 179.992 2.23864 179.677C1.75805 179.359 1.38021 178.906 1.10511 178.32C0.833333 177.73 0.697443 177.022 0.697443 176.197C0.697443 175.371 0.834991 174.665 1.11009 174.079C1.38849 173.492 1.76965 173.043 2.25355 172.732C2.73745 172.42 3.28598 172.264 3.89915 172.264C4.37311 172.264 4.75426 172.344 5.04261 172.503C5.33428 172.659 5.55966 172.841 5.71875 173.05C5.88116 173.259 6.0071 173.442 6.09659 173.602H6.22088V172.364H7.67259V182.864H6.18608ZM4.21733 178.881C4.64489 178.881 5.00616 178.769 5.30114 178.543C5.59943 178.315 5.82481 177.998 5.97727 177.594C6.13305 177.189 6.21094 176.719 6.21094 176.182C6.21094 175.652 6.13471 175.187 5.98224 174.79C5.82978 174.392 5.60606 174.082 5.31108 173.86C5.0161 173.638 4.65152 173.527 4.21733 173.527C3.76989 173.527 3.39702 173.643 3.09872 173.875C2.80043 174.107 2.57505 174.424 2.42259 174.825C2.27344 175.226 2.19886 175.678 2.19886 176.182C2.19886 176.692 2.27509 177.151 2.42756 177.559C2.58002 177.967 2.8054 178.29 3.10369 178.528C3.4053 178.764 3.77652 178.881 4.21733 178.881ZM14.5085 176.833V172.364H16V180H14.5384V178.678H14.4588C14.2831 179.085 14.0014 179.425 13.6136 179.697C13.2292 179.965 12.7502 180.099 12.1768 180.099C11.6863 180.099 11.2521 179.992 10.8743 179.776C10.4998 179.558 10.2048 179.234 9.98935 178.807C9.77723 178.379 9.67116 177.851 9.67116 177.221V172.364H11.1577V177.042C11.1577 177.562 11.3018 177.977 11.5902 178.285C11.8786 178.593 12.2531 178.747 12.7138 178.747C12.9922 178.747 13.2689 178.678 13.544 178.538C13.8224 178.399 14.0528 178.189 14.2351 177.907C14.4207 177.625 14.5118 177.267 14.5085 176.833ZM20.2196 180.169C19.7357 180.169 19.2982 180.08 18.9071 179.901C18.516 179.718 18.2061 179.455 17.9775 179.11C17.7521 178.765 17.6394 178.343 17.6394 177.842C17.6394 177.411 17.7222 177.057 17.888 176.778C18.0537 176.5 18.2774 176.28 18.5591 176.117C18.8408 175.955 19.1557 175.832 19.5037 175.749C19.8517 175.666 20.2064 175.603 20.5676 175.56C21.025 175.507 21.3962 175.464 21.6813 175.431C21.9663 175.395 22.1735 175.337 22.3027 175.257C22.432 175.178 22.4966 175.048 22.4966 174.869V174.835C22.4966 174.4 22.374 174.064 22.1287 173.825C21.8868 173.587 21.5255 173.467 21.0449 173.467C20.5444 173.467 20.15 173.578 19.8617 173.8C19.5766 174.019 19.3794 174.263 19.2701 174.531L17.873 174.213C18.0388 173.749 18.2807 173.375 18.5989 173.089C18.9204 172.801 19.29 172.592 19.7076 172.463C20.1252 172.33 20.5643 172.264 21.025 172.264C21.33 172.264 21.6531 172.301 21.9945 172.374C22.3392 172.443 22.6607 172.572 22.959 172.761C23.2606 172.95 23.5075 173.22 23.6998 173.572C23.892 173.92 23.9881 174.372 23.9881 174.929V180H22.5364V178.956H22.4767C22.3806 179.148 22.2364 179.337 22.0442 179.523C21.852 179.708 21.6051 179.862 21.3034 179.985C21.0018 180.108 20.6406 180.169 20.2196 180.169ZM20.5428 178.976C20.9538 178.976 21.3051 178.895 21.5968 178.732C21.8917 178.57 22.1155 178.358 22.2679 178.096C22.4237 177.831 22.5016 177.547 22.5016 177.246V176.261C22.4486 176.314 22.3458 176.364 22.1934 176.411C22.0442 176.454 21.8735 176.492 21.6813 176.525C21.4891 176.555 21.3018 176.583 21.1195 176.609C20.9372 176.633 20.7847 176.652 20.6621 176.669C20.3738 176.705 20.1103 176.767 19.8716 176.853C19.6363 176.939 19.4474 177.063 19.3049 177.226C19.1657 177.385 19.0961 177.597 19.0961 177.862C19.0961 178.23 19.2319 178.509 19.5037 178.697C19.7755 178.883 20.1219 178.976 20.5428 178.976Z" fill="white"/>
<defs>
<linearGradient id="paint0_linear_201_43" x1="12.5" y1="0" x2="12.5" y2="159" gradientUnits="userSpaceOnUse">
<stop stop-color="#90F7EC"/>
<stop offset="1" stop-color="#32CCBC"/>
</linearGradient>
</defs>
</svg>
