<svg width="21" height="156" viewBox="0 0 21 156" fill="none" xmlns="http://www.w3.org/2000/svg">
<rect x="3" width="15" height="129" rx="7.5" fill="url(#paint0_linear_201_47)"/>
<path d="M6.42827 152.864V148.812H6.33878C6.24929 148.974 6.12003 149.16 5.95099 149.369C5.78527 149.577 5.55658 149.76 5.26491 149.915C4.97325 150.071 4.59541 150.149 4.13139 150.149C3.51491 150.149 2.96473 149.992 2.48082 149.677C2.00024 149.359 1.6224 148.906 1.3473 148.32C1.07552 147.73 0.939631 147.022 0.939631 146.197C0.939631 145.371 1.07718 144.665 1.35227 144.079C1.63068 143.492 2.01184 143.043 2.49574 142.732C2.97964 142.42 3.52817 142.264 4.14134 142.264C4.61529 142.264 4.99645 142.344 5.2848 142.503C5.57647 142.659 5.80185 142.841 5.96094 143.05C6.12334 143.259 6.24929 143.442 6.33878 143.602H6.46307V142.364H7.91477V152.864H6.42827ZM4.45952 148.881C4.88707 148.881 5.24834 148.769 5.54332 148.543C5.84162 148.315 6.067 147.998 6.21946 147.594C6.37524 147.189 6.45312 146.719 6.45312 146.182C6.45312 145.652 6.37689 145.187 6.22443 144.79C6.07197 144.392 5.84825 144.082 5.55327 143.86C5.25829 143.638 4.8937 143.527 4.45952 143.527C4.01207 143.527 3.6392 143.643 3.34091 143.875C3.04261 144.107 2.81723 144.424 2.66477 144.825C2.51563 145.226 2.44105 145.678 2.44105 146.182C2.44105 146.692 2.51728 147.151 2.66974 147.559C2.82221 147.967 3.04759 148.29 3.34588 148.528C3.64749 148.764 4.0187 148.881 4.45952 148.881ZM14.7507 146.833V142.364H16.2422V150H14.7805V148.678H14.701C14.5253 149.085 14.2436 149.425 13.8558 149.697C13.4714 149.965 12.9924 150.099 12.419 150.099C11.9285 150.099 11.4943 149.992 11.1165 149.776C10.742 149.558 10.447 149.234 10.2315 148.807C10.0194 148.379 9.91335 147.851 9.91335 147.221V142.364H11.3999V147.042C11.3999 147.562 11.544 147.977 11.8324 148.285C12.1207 148.593 12.4953 148.747 12.956 148.747C13.2344 148.747 13.5111 148.678 13.7862 148.538C14.0646 148.399 14.295 148.189 14.4773 147.907C14.6629 147.625 14.754 147.267 14.7507 146.833ZM18.2395 150V142.364H19.726V150H18.2395ZM18.9902 141.185C18.7317 141.185 18.5096 141.099 18.324 140.927C18.1417 140.751 18.0506 140.542 18.0506 140.3C18.0506 140.055 18.1417 139.846 18.324 139.674C18.5096 139.498 18.7317 139.411 18.9902 139.411C19.2488 139.411 19.4692 139.498 19.6515 139.674C19.8371 139.846 19.9299 140.055 19.9299 140.3C19.9299 140.542 19.8371 140.751 19.6515 140.927C19.4692 141.099 19.2488 141.185 18.9902 141.185Z" fill="white"/>
<defs>
<linearGradient id="paint0_linear_201_47" x1="10.5" y1="0" x2="10.5" y2="129" gradientUnits="userSpaceOnUse">
<stop stop-color="#90F7EC"/>
<stop offset="1" stop-color="#32CCBC"/>
</linearGradient>
</defs>
</svg>
