<svg width="25" height="96" viewBox="0 0 25 96" fill="none" xmlns="http://www.w3.org/2000/svg">
<rect x="5" width="15" height="69" rx="7.5" fill="url(#paint0_linear_201_55)"/>
<path d="M7.10147 84.228L5.75417 84.4666C5.69783 84.2943 5.60834 84.1302 5.48571 83.9744C5.36639 83.8187 5.20398 83.6911 4.99849 83.5916C4.793 83.4922 4.53613 83.4425 4.22789 83.4425C3.80697 83.4425 3.45564 83.5369 3.17392 83.7259C2.89219 83.9115 2.75133 84.1518 2.75133 84.4467C2.75133 84.7019 2.84579 84.9074 3.03471 85.0632C3.22363 85.219 3.52856 85.3466 3.94949 85.446L5.16255 85.7244C5.86521 85.8868 6.38888 86.1371 6.73358 86.4751C7.07827 86.8132 7.25062 87.2524 7.25062 87.7926C7.25062 88.25 7.11805 88.6577 6.85289 89.0156C6.59106 89.3703 6.22482 89.6487 5.75417 89.8509C5.28684 90.053 4.74494 90.1541 4.12846 90.1541C3.27335 90.1541 2.57567 89.9718 2.03542 89.6072C1.49518 89.2393 1.16374 88.7173 1.0411 88.0412L2.47789 87.8224C2.56738 88.197 2.75133 88.4804 3.02974 88.6726C3.30815 88.8615 3.67108 88.956 4.11852 88.956C4.60574 88.956 4.99518 88.8549 5.28684 88.6527C5.57851 88.4472 5.72434 88.197 5.72434 87.902C5.72434 87.6634 5.63485 87.4628 5.45588 87.3004C5.28021 87.138 5.01009 87.0154 4.64551 86.9325L3.35289 86.6491C2.6403 86.4867 2.11331 86.2282 1.77193 85.8736C1.43386 85.5189 1.26483 85.0698 1.26483 84.5263C1.26483 84.0755 1.39077 83.6811 1.64267 83.343C1.89456 83.005 2.24257 82.7415 2.6867 82.5526C3.13083 82.3603 3.63959 82.2642 4.21298 82.2642C5.03826 82.2642 5.68788 82.4432 6.16184 82.8011C6.6358 83.1558 6.94901 83.6314 7.10147 84.228ZM11.1073 90.169C10.6234 90.169 10.1859 90.0795 9.79483 89.9006C9.40373 89.7183 9.09384 89.4548 8.86515 89.1101C8.63977 88.7654 8.52708 88.3428 8.52708 87.8423C8.52708 87.4115 8.60994 87.0568 8.77566 86.7784C8.94138 86.5 9.1651 86.2796 9.44682 86.1172C9.72855 85.9548 10.0434 85.8321 10.3914 85.7493C10.7394 85.6664 11.0941 85.6035 11.4553 85.5604C11.9127 85.5073 12.2839 85.4643 12.569 85.4311C12.854 85.3946 13.0612 85.3366 13.1904 85.2571C13.3197 85.1776 13.3843 85.0483 13.3843 84.8693V84.8345C13.3843 84.4003 13.2617 84.0639 13.0164 83.8253C12.7745 83.5866 12.4132 83.4673 11.9326 83.4673C11.4321 83.4673 11.0377 83.5784 10.7494 83.8004C10.4643 84.0192 10.2671 84.2628 10.1578 84.5312L8.76074 84.2131C8.92646 83.7491 9.16841 83.3745 9.48659 83.0895C9.80809 82.8011 10.1776 82.5923 10.5953 82.4631C11.0129 82.3305 11.452 82.2642 11.9127 82.2642C12.2177 82.2642 12.5408 82.3007 12.8822 82.3736C13.2269 82.4432 13.5484 82.5724 13.8467 82.7614C14.1483 82.9503 14.3952 83.2204 14.5874 83.5717C14.7797 83.9197 14.8758 84.3722 14.8758 84.929V90H13.4241V88.956H13.3644C13.2683 89.1482 13.1241 89.3371 12.9319 89.5227C12.7397 89.7083 12.4927 89.8625 12.1911 89.9851C11.8895 90.1077 11.5283 90.169 11.1073 90.169ZM11.4305 88.9759C11.8415 88.9759 12.1928 88.8946 12.4845 88.7322C12.7794 88.5698 13.0032 88.3577 13.1556 88.0959C13.3114 87.8307 13.3893 87.5473 13.3893 87.2457V86.2614C13.3363 86.3144 13.2335 86.3641 13.0811 86.4105C12.9319 86.4536 12.7612 86.4917 12.569 86.5249C12.3767 86.5547 12.1895 86.5829 12.0072 86.6094C11.8249 86.6326 11.6724 86.6525 11.5498 86.669C11.2615 86.7055 10.998 86.7668 10.7593 86.853C10.524 86.9392 10.3351 87.0634 10.1926 87.2259C10.0534 87.3849 9.98375 87.5971 9.98375 87.8622C9.98375 88.2301 10.1196 88.5085 10.3914 88.6974C10.6632 88.883 11.0096 88.9759 11.4305 88.9759ZM16.9751 90V79.8182H18.4616V83.6016H18.551C18.6372 83.4425 18.7615 83.2585 18.9239 83.0497C19.0863 82.8409 19.3117 82.6586 19.6001 82.5028C19.8884 82.3438 20.2696 82.2642 20.7435 82.2642C21.36 82.2642 21.9102 82.42 22.3941 82.7315C22.878 83.0431 23.2575 83.4922 23.5326 84.0788C23.811 84.6655 23.9502 85.3714 23.9502 86.1967C23.9502 87.022 23.8126 87.7296 23.5376 88.3196C23.2625 88.9062 22.8846 89.3587 22.404 89.6768C21.9234 89.9917 21.3749 90.1491 20.7584 90.1491C20.2944 90.1491 19.9149 90.0713 19.6199 89.9155C19.3283 89.7597 19.0996 89.5774 18.9339 89.3686C18.7681 89.1598 18.6405 88.9742 18.551 88.8118H18.4268V90H16.9751ZM18.4317 86.1818C18.4317 86.7187 18.5096 87.1894 18.6654 87.5938C18.8212 87.9981 19.0465 88.3146 19.3415 88.5433C19.6365 88.7687 19.9978 88.8814 20.4253 88.8814C20.8695 88.8814 21.2407 88.7637 21.539 88.5284C21.8373 88.2898 22.0626 87.9666 22.2151 87.5589C22.3709 87.1513 22.4488 86.6922 22.4488 86.1818C22.4488 85.678 22.3725 85.2256 22.2201 84.8246C22.0709 84.4235 21.8456 84.107 21.5439 83.875C21.2456 83.643 20.8728 83.527 20.4253 83.527C19.9945 83.527 19.6299 83.638 19.3316 83.8601C19.0366 84.0821 18.8129 84.392 18.6604 84.7898C18.508 85.1875 18.4317 85.6515 18.4317 86.1818Z" fill="white"/>
<defs>
<linearGradient id="paint0_linear_201_55" x1="12.5" y1="0" x2="12.5" y2="69" gradientUnits="userSpaceOnUse">
<stop stop-color="#90F7EC"/>
<stop offset="1" stop-color="#32CCBC"/>
</linearGradient>
</defs>
</svg>
