<svg width="25" height="142" viewBox="0 0 25 142" fill="none" xmlns="http://www.w3.org/2000/svg">
<rect x="5" width="15" height="115" rx="7.5" fill="url(#paint0_linear_201_35)"/>
<path d="M7.03995 130.228L5.69265 130.467C5.6363 130.294 5.54682 130.13 5.42418 129.974C5.30487 129.819 5.14246 129.691 4.93697 129.592C4.73148 129.492 4.47461 129.442 4.16637 129.442C3.74544 129.442 3.39412 129.537 3.11239 129.726C2.83067 129.911 2.68981 130.152 2.68981 130.447C2.68981 130.702 2.78427 130.907 2.97319 131.063C3.16211 131.219 3.46703 131.347 3.88796 131.446L5.10103 131.724C5.80368 131.887 6.32736 132.137 6.67205 132.475C7.01675 132.813 7.1891 133.252 7.1891 133.793C7.1891 134.25 7.05652 134.658 6.79137 135.016C6.52953 135.37 6.16329 135.649 5.69265 135.851C5.22532 136.053 4.68342 136.154 4.06694 136.154C3.21183 136.154 2.51415 135.972 1.9739 135.607C1.43365 135.239 1.10221 134.717 0.979581 134.041L2.41637 133.822C2.50586 134.197 2.68981 134.48 2.96822 134.673C3.24663 134.862 3.60955 134.956 4.057 134.956C4.54421 134.956 4.93365 134.855 5.22532 134.653C5.51699 134.447 5.66282 134.197 5.66282 133.902C5.66282 133.663 5.57333 133.463 5.39435 133.3C5.21869 133.138 4.94857 133.015 4.58398 132.933L3.29137 132.649C2.57878 132.487 2.05179 132.228 1.7104 131.874C1.37234 131.519 1.2033 131.07 1.2033 130.526C1.2033 130.076 1.32925 129.681 1.58114 129.343C1.83304 129.005 2.18105 128.741 2.62518 128.553C3.06931 128.36 3.57807 128.264 4.15146 128.264C4.97674 128.264 5.62636 128.443 6.10032 128.801C6.57428 129.156 6.88749 129.631 7.03995 130.228ZM12.1147 136.154C11.3623 136.154 10.7144 135.993 10.1708 135.672C9.63056 135.347 9.21295 134.891 8.91797 134.305C8.6263 133.715 8.48047 133.024 8.48047 132.232C8.48047 131.449 8.6263 130.76 8.91797 130.163C9.21295 129.567 9.62393 129.101 10.1509 128.766C10.6812 128.432 11.301 128.264 12.0103 128.264C12.4412 128.264 12.8588 128.335 13.2631 128.478C13.6675 128.621 14.0304 128.844 14.3519 129.149C14.6734 129.454 14.927 129.85 15.1126 130.337C15.2982 130.821 15.391 131.41 15.391 132.102V132.629H9.32067V131.516H13.9343C13.9343 131.125 13.8548 130.778 13.6957 130.477C13.5366 130.172 13.3129 129.931 13.0245 129.756C12.7395 129.58 12.4047 129.492 12.0202 129.492C11.6026 129.492 11.238 129.595 10.9265 129.8C10.6183 130.003 10.3796 130.268 10.2106 130.596C10.0449 130.921 9.962 131.274 9.962 131.655V132.525C9.962 133.035 10.0515 133.469 10.2305 133.827C10.4128 134.185 10.6663 134.459 10.9911 134.648C11.3159 134.833 11.6954 134.926 12.1296 134.926C12.4113 134.926 12.6682 134.886 12.9002 134.807C13.1322 134.724 13.3327 134.601 13.5018 134.439C13.6708 134.277 13.8001 134.076 13.8896 133.837L15.2965 134.091C15.1838 134.505 14.9817 134.868 14.69 135.18C14.4016 135.488 14.0387 135.728 13.6012 135.901C13.167 136.07 12.6715 136.154 12.1147 136.154ZM20.242 139.023C19.6355 139.023 19.1135 138.943 18.676 138.784C18.2418 138.625 17.8871 138.415 17.612 138.153C17.3369 137.891 17.1315 137.604 16.9956 137.293L18.2733 136.766C18.3627 136.911 18.4821 137.066 18.6312 137.228C18.7837 137.394 18.9892 137.535 19.2477 137.651C19.5095 137.767 19.8459 137.825 20.2569 137.825C20.8204 137.825 21.286 137.687 21.6539 137.412C22.0218 137.14 22.2058 136.706 22.2058 136.109V134.608H22.1113C22.0218 134.77 21.8926 134.951 21.7235 135.15C21.5578 135.349 21.3291 135.521 21.0375 135.667C20.7458 135.813 20.3663 135.886 19.899 135.886C19.2958 135.886 18.7522 135.745 18.2683 135.463C17.7877 135.178 17.4065 134.759 17.1248 134.205C16.8464 133.648 16.7072 132.964 16.7072 132.152C16.7072 131.34 16.8448 130.644 17.1199 130.064C17.3983 129.484 17.7794 129.04 18.2633 128.732C18.7472 128.42 19.2958 128.264 19.9089 128.264C20.3829 128.264 20.7657 128.344 21.0574 128.503C21.349 128.659 21.5761 128.841 21.7385 129.05C21.9042 129.259 22.0318 129.442 22.1213 129.602H22.2306V128.364H23.6873V136.169C23.6873 136.825 23.5349 137.364 23.2299 137.785C22.925 138.206 22.5124 138.517 21.992 138.719C21.475 138.922 20.8916 139.023 20.242 139.023ZM20.2271 134.653C20.6547 134.653 21.0159 134.553 21.3109 134.354C21.6092 134.152 21.8346 133.864 21.987 133.489C22.1428 133.112 22.2207 132.659 22.2207 132.132C22.2207 131.618 22.1445 131.166 21.992 130.775C21.8395 130.384 21.6158 130.079 21.3208 129.86C21.0259 129.638 20.6613 129.527 20.2271 129.527C19.7797 129.527 19.4068 129.643 19.1085 129.875C18.8102 130.104 18.5848 130.415 18.4324 130.81C18.2832 131.204 18.2086 131.645 18.2086 132.132C18.2086 132.633 18.2849 133.072 18.4373 133.45C18.5898 133.827 18.8152 134.122 19.1135 134.335C19.4151 134.547 19.7863 134.653 20.2271 134.653Z" fill="white"/>
<defs>
<linearGradient id="paint0_linear_201_35" x1="12.5" y1="0" x2="12.5" y2="115" gradientUnits="userSpaceOnUse">
<stop stop-color="#90F7EC"/>
<stop offset="1" stop-color="#32CCBC"/>
</linearGradient>
</defs>
</svg>
