<svg width="24" height="147" viewBox="0 0 24 147" fill="none" xmlns="http://www.w3.org/2000/svg">
<rect x="4.5" width="15" height="120" rx="7.5" fill="url(#paint0_linear_201_51)"/>
<path d="M7.09366 135.228L5.74636 135.467C5.69002 135.294 5.60053 135.13 5.47789 134.974C5.35858 134.819 5.19617 134.691 4.99068 134.592C4.78519 134.492 4.52832 134.442 4.22008 134.442C3.79915 134.442 3.44783 134.537 3.1661 134.726C2.88438 134.911 2.74352 135.152 2.74352 135.447C2.74352 135.702 2.83798 135.907 3.0269 136.063C3.21582 136.219 3.52074 136.347 3.94167 136.446L5.15474 136.724C5.85739 136.887 6.38107 137.137 6.72576 137.475C7.07046 137.813 7.24281 138.252 7.24281 138.793C7.24281 139.25 7.11023 139.658 6.84508 140.016C6.58324 140.37 6.217 140.649 5.74636 140.851C5.27903 141.053 4.73713 141.154 4.12065 141.154C3.26554 141.154 2.56786 140.972 2.02761 140.607C1.48736 140.239 1.15592 139.717 1.03329 139.041L2.47008 138.822C2.55957 139.197 2.74352 139.48 3.02193 139.673C3.30034 139.862 3.66326 139.956 4.11071 139.956C4.59792 139.956 4.98736 139.855 5.27903 139.653C5.5707 139.447 5.71653 139.197 5.71653 138.902C5.71653 138.663 5.62704 138.463 5.44806 138.3C5.2724 138.138 5.00228 138.015 4.6377 137.933L3.34508 137.649C2.63249 137.487 2.1055 137.228 1.76412 136.874C1.42605 136.519 1.25701 136.07 1.25701 135.526C1.25701 135.076 1.38296 134.681 1.63485 134.343C1.88675 134.005 2.23476 133.741 2.67889 133.553C3.12302 133.36 3.63178 133.264 4.20517 133.264C5.03045 133.264 5.68007 133.443 6.15403 133.801C6.62799 134.156 6.9412 134.631 7.09366 135.228ZM12.1684 141.154C11.416 141.154 10.7681 140.993 10.2245 140.672C9.68427 140.347 9.26666 139.891 8.97168 139.305C8.68001 138.715 8.53418 138.024 8.53418 137.232C8.53418 136.449 8.68001 135.76 8.97168 135.163C9.26666 134.567 9.67765 134.101 10.2046 133.766C10.7349 133.432 11.3547 133.264 12.064 133.264C12.4949 133.264 12.9125 133.335 13.3169 133.478C13.7212 133.621 14.0841 133.844 14.4056 134.149C14.7271 134.454 14.9807 134.85 15.1663 135.337C15.3519 135.821 15.4447 136.41 15.4447 137.102V137.629H9.37438V136.516H13.988C13.988 136.125 13.9085 135.778 13.7494 135.477C13.5903 135.172 13.3666 134.931 13.0782 134.756C12.7932 134.58 12.4584 134.492 12.074 134.492C11.6563 134.492 11.2918 134.595 10.9802 134.8C10.672 135.003 10.4333 135.268 10.2643 135.596C10.0986 135.921 10.0157 136.274 10.0157 136.655V137.525C10.0157 138.035 10.1052 138.469 10.2842 138.827C10.4665 139.185 10.72 139.459 11.0448 139.648C11.3696 139.833 11.7491 139.926 12.1833 139.926C12.4651 139.926 12.7219 139.886 12.9539 139.807C13.1859 139.724 13.3865 139.601 13.5555 139.439C13.7245 139.277 13.8538 139.076 13.9433 138.837L15.3502 139.091C15.2375 139.505 15.0354 139.868 14.7437 140.18C14.4553 140.488 14.0924 140.728 13.6549 140.901C13.2207 141.07 12.7252 141.154 12.1684 141.154ZM18.0896 133.364L19.7749 136.337L21.4752 133.364H23.1009L20.7195 137.182L23.1208 141H21.4951L19.7749 138.146L18.0597 141H16.4291L18.8055 137.182L16.4589 133.364H18.0896Z" fill="white"/>
<defs>
<linearGradient id="paint0_linear_201_51" x1="12" y1="0" x2="12" y2="120" gradientUnits="userSpaceOnUse">
<stop stop-color="#90F7EC"/>
<stop offset="1" stop-color="#32CCBC"/>
</linearGradient>
</defs>
</svg>
