<svg width="19" height="103" viewBox="0 0 19 103" fill="none" xmlns="http://www.w3.org/2000/svg">
<rect x="2" width="15" height="76" rx="7.5" fill="url(#paint0_linear_201_39)"/>
<path d="M4.70552 89.3636V90.5568H0.534357V89.3636H4.70552ZM1.65297 87.5341H3.13947V94.7578C3.13947 95.0462 3.18256 95.2633 3.26873 95.4091C3.35491 95.5516 3.46594 95.6494 3.60183 95.7024C3.74103 95.7521 3.89184 95.777 4.05424 95.777C4.17356 95.777 4.27797 95.7687 4.36745 95.7521C4.45694 95.7356 4.52654 95.7223 4.57626 95.7124L4.84473 96.9403C4.75855 96.9735 4.63592 97.0066 4.47683 97.0398C4.31774 97.0762 4.11887 97.0961 3.88024 97.0994C3.48914 97.1061 3.12456 97.0365 2.78649 96.8906C2.44842 96.7448 2.17498 96.5194 1.96618 96.2145C1.75737 95.9096 1.65297 95.5268 1.65297 95.0661V87.5341ZM9.55904 97.1541C8.80667 97.1541 8.15871 96.9934 7.61515 96.6719C7.0749 96.3471 6.65729 95.8913 6.3623 95.3047C6.07064 94.7147 5.9248 94.0237 5.9248 93.2315C5.9248 92.4493 6.07064 91.7599 6.3623 91.1634C6.65729 90.5668 7.06827 90.1011 7.59526 89.7663C8.12556 89.4316 8.74535 89.2642 9.45463 89.2642C9.88551 89.2642 10.3031 89.3355 10.7075 89.478C11.1118 89.6205 11.4748 89.8442 11.7963 90.1491C12.1178 90.4541 12.3713 90.8501 12.5569 91.3374C12.7425 91.8213 12.8353 92.4096 12.8353 93.1023V93.6293H6.765V92.5156H11.3786C11.3786 92.1245 11.2991 91.7782 11.14 91.4766C10.9809 91.1716 10.7572 90.9313 10.4688 90.7557C10.1838 90.58 9.84905 90.4922 9.46458 90.4922C9.04696 90.4922 8.68238 90.5949 8.37083 90.8004C8.06259 91.0026 7.82395 91.2678 7.65492 91.5959C7.4892 91.9207 7.40634 92.2737 7.40634 92.6548V93.5249C7.40634 94.0353 7.49583 94.4695 7.6748 94.8274C7.8571 95.1854 8.11065 95.4588 8.43546 95.6477C8.76027 95.8333 9.13977 95.9261 9.57395 95.9261C9.85568 95.9261 10.1125 95.8864 10.3445 95.8068C10.5766 95.724 10.7771 95.6013 10.9461 95.4389C11.1151 95.2765 11.2444 95.076 11.3339 94.8374L12.7409 95.0909C12.6282 95.5052 12.426 95.8681 12.1343 96.1797C11.846 96.4879 11.483 96.7282 11.0455 96.9006C10.6114 97.0696 10.1159 97.1541 9.55904 97.1541ZM14.4846 97V89.3636H15.9214V90.5767H16.001C16.1402 90.1657 16.3854 89.8426 16.7368 89.6072C17.0914 89.3686 17.4925 89.2493 17.9399 89.2493C18.0327 89.2493 18.1421 89.2526 18.268 89.2592C18.3973 89.2659 18.4984 89.2741 18.5713 89.2841V90.706C18.5116 90.6894 18.4056 90.6712 18.2531 90.6513C18.1006 90.6281 17.9482 90.6165 17.7957 90.6165C17.4444 90.6165 17.1312 90.6911 16.8561 90.8402C16.5843 90.986 16.3689 91.1899 16.2098 91.4517C16.0507 91.7102 15.9711 92.0052 15.9711 92.3366V97H14.4846Z" fill="white"/>
<defs>
<linearGradient id="paint0_linear_201_39" x1="9.5" y1="0" x2="9.5" y2="76" gradientUnits="userSpaceOnUse">
<stop stop-color="#90F7EC"/>
<stop offset="1" stop-color="#32CCBC"/>
</linearGradient>
</defs>
</svg>
